<svg width="58" height="80" viewBox="0 0 58 80" fill="none" xmlns="http://www.w3.org/2000/svg">
<path fill-rule="evenodd" clip-rule="evenodd" d="M28.6717 6.66674C33.2987 6.65874 37.7926 8.21531 41.4233 11.0836C45.0541 13.9519 47.6085 17.9635 48.6716 22.4668C48.7006 22.5933 48.7008 22.7248 48.6721 22.8514C48.6435 22.978 48.5867 23.0966 48.5061 23.1984C48.4254 23.3001 48.323 23.3825 48.2062 23.4393C48.0895 23.4961 47.9615 23.526 47.8317 23.5267H32.0983C31.8702 23.5267 31.6515 23.4361 31.4902 23.2749C31.3289 23.1136 31.2383 22.8948 31.2383 22.6667V21.8267C31.2383 21.5987 31.3289 21.3799 31.4902 21.2186C31.6515 21.0573 31.8702 20.9668 32.0983 20.9668H32.825C33.0537 20.9668 33.2731 20.8764 33.4355 20.7153C33.5978 20.5542 33.6899 20.3354 33.6917 20.1067V16.6667C33.6899 16.438 33.5978 16.2193 33.4355 16.0582C33.2731 15.8971 33.0537 15.8067 32.825 15.8067H24.525C24.2963 15.8067 24.0768 15.8971 23.9145 16.0582C23.7522 16.2193 23.6601 16.438 23.6583 16.6667V20.0734C23.6601 20.3021 23.7522 20.5208 23.9145 20.6819C24.0768 20.843 24.2963 20.9334 24.525 20.9334H25.2517C25.3646 20.9334 25.4764 20.9557 25.5808 20.9989C25.6851 21.0421 25.7799 21.1054 25.8598 21.1853C25.9396 21.2652 26.003 21.36 26.0462 21.4643C26.0894 21.5687 26.1117 21.6805 26.1117 21.7934V22.2734C25.8454 22.2694 25.5851 22.3526 25.3706 22.5104C25.156 22.6682 24.999 22.8918 24.9234 23.1472C24.8479 23.4025 24.858 23.6756 24.9521 23.9247C25.0463 24.1738 25.2194 24.3852 25.445 24.5267C25.4767 24.5451 25.5032 24.5713 25.5219 24.6028C25.5406 24.6343 25.5508 24.6701 25.5517 24.7067C25.552 24.7445 25.5423 24.7817 25.5236 24.8145C25.5048 24.8473 25.4777 24.8745 25.445 24.8934C25.2701 25.0032 25.1259 25.1556 25.0259 25.3363C24.926 25.5171 24.8735 25.7202 24.8735 25.9268C24.8735 26.1333 24.926 26.3364 25.0259 26.5171C25.1259 26.6979 25.2701 26.8503 25.445 26.9601C25.4777 26.979 25.5048 27.0062 25.5236 27.039C25.5423 27.0718 25.552 27.109 25.5517 27.1467C25.5508 27.1834 25.5406 27.2192 25.5219 27.2507C25.5032 27.2823 25.4767 27.3084 25.445 27.3267C25.2701 27.4374 25.1261 27.5904 25.0263 27.7717C24.9264 27.9529 24.8741 28.1565 24.8741 28.3634C24.8741 28.5703 24.9264 28.7739 25.0263 28.9552C25.1261 29.1364 25.2701 29.2895 25.445 29.4001C25.4776 29.4173 25.5049 29.4432 25.5237 29.475C25.5426 29.5068 25.5522 29.5431 25.5517 29.5801C25.5508 29.6167 25.5406 29.6525 25.5219 29.6841C25.5032 29.7156 25.4767 29.7418 25.445 29.7601C25.27 29.8716 25.1259 30.0253 25.0257 30.207C24.9256 30.3887 24.8726 30.5926 24.8717 30.8001C24.8743 30.9603 24.9084 31.1184 24.9721 31.2655C25.0359 31.4125 25.1279 31.5455 25.2431 31.6569C25.3582 31.7684 25.4942 31.856 25.6432 31.9149C25.7923 31.9738 25.9514 32.0027 26.1117 32.0001V32.4801C26.1117 32.7082 26.021 32.9269 25.8598 33.0882C25.6985 33.2495 25.4797 33.3401 25.2517 33.3401H24.525C24.2963 33.3401 24.0768 33.4305 23.9145 33.5915C23.7522 33.7526 23.6601 33.9714 23.6583 34.2001V37.6067C23.6583 37.8366 23.7496 38.057 23.9122 38.2196C24.0747 38.3821 24.2951 38.4734 24.525 38.4734H32.825C33.0548 38.4734 33.2753 38.3821 33.4378 38.2196C33.6003 38.057 33.6917 37.8366 33.6917 37.6067V34.2001C33.6899 33.9714 33.5978 33.7526 33.4355 33.5915C33.2731 33.4305 33.0537 33.3401 32.825 33.3401H32.0983C31.8702 33.3401 31.6515 33.2495 31.4902 33.0882C31.3289 32.9269 31.2383 32.7082 31.2383 32.4801V31.6467C31.2383 31.4187 31.3289 31.1999 31.4902 31.0386C31.6515 30.8773 31.8702 30.7867 32.0983 30.7867H47.8117C47.9408 30.7877 48.0681 30.8175 48.1842 30.8739C48.3004 30.9304 48.4024 31.0121 48.4829 31.113C48.5634 31.214 48.6204 31.3317 48.6496 31.4575C48.6788 31.5832 48.6795 31.714 48.6516 31.8401C47.7674 35.591 45.8445 39.0169 43.1032 41.7255C40.3619 44.434 36.9131 46.3156 33.1518 47.1546C29.3906 47.9937 25.469 47.7562 21.8365 46.4695C18.2039 45.1828 15.0073 42.8989 12.6128 39.8795C10.2183 36.86 8.72274 33.2271 8.29752 29.3969C7.87229 25.5667 8.53457 21.6942 10.2085 18.2231C11.8824 14.7519 14.5003 11.8225 17.7621 9.77034C21.024 7.71823 24.798 6.62645 28.6517 6.62007" fill="#F79633"/>
<path d="M46.6451 8.9334C42.4276 4.71318 36.8773 2.08598 30.9399 1.49948C25.0025 0.912984 19.0455 2.40349 14.0839 5.71701C9.12228 9.03053 5.4632 13.962 3.73019 19.6711C1.99717 25.3801 2.29745 31.5135 4.57987 37.026C6.86228 42.5384 10.9856 47.0889 16.2471 49.9019C21.5087 52.7149 27.5828 53.6164 33.4345 52.4527C39.2863 51.289 44.5534 48.1322 48.3384 43.5202C52.1234 38.9082 54.192 33.1264 54.1917 27.1601C54.1959 23.7747 53.5314 20.4219 52.2364 17.294C50.9413 14.1662 49.0411 11.3249 46.6451 8.9334ZM28.4117 7.01733e-05C34.6902 -0.0142014 40.7795 2.14881 45.6421 6.1206C50.5047 10.0924 53.8398 15.6273 55.0793 21.7822C56.3188 27.9372 55.3859 34.3316 52.4396 39.8759C49.4933 45.4202 44.7158 49.7715 38.9211 52.1884C33.1265 54.6054 26.673 54.9385 20.6603 53.1311C14.6475 51.3236 9.44746 47.4873 5.94595 42.2758C2.44445 37.0643 0.858135 30.8001 1.45727 24.5502C2.0564 18.3003 4.80391 12.4514 9.23172 8.00007C11.7427 5.46697 14.7302 3.45593 18.0221 2.08289C21.3139 0.709858 24.845 0.00197682 28.4117 7.01733e-05Z" fill="#F79633"/>
<path d="M49.891 68.1276H48.2622V72.4113H49.891V68.1276Z" fill="#F79633"/>
<path d="M26.5137 68.5324H22.8325V70.4624H26.5137V68.5324Z" fill="#F79633"/>
<path d="M18.6807 76.215H17.2214V77.0152H18.5489V78.0226H17.2214V79.8774H16.0068V75.1982H18.6807V76.215Z" fill="#F79633"/>
<path d="M20.62 75.1982H19.4055V79.8679H20.62V75.1982Z" fill="#F79633"/>
<path d="M24.5838 76.215H23.5764V79.8774H22.3618V76.215H21.3733V75.1982H24.5838V76.215Z" fill="#F79633"/>
<path d="M29.9974 79.8774H28.7829L26.5516 77.0152V79.8774H25.337V75.1982H26.5516L28.7829 78.0603V75.1982H29.9974V79.8774Z" fill="#F79633"/>
<path d="M33.4242 79.8774H30.7598V75.1982H33.4242V76.215H31.9743V77.0152H33.3394V78.0226H31.9743V78.87H33.4242V79.8774Z" fill="#F79633"/>
<path d="M37.4256 78.3333C37.4552 78.6715 37.3675 79.0097 37.1772 79.2909C36.9869 79.572 36.7056 79.7791 36.3805 79.8773C36.1321 79.9621 35.871 80.0035 35.6085 79.9997C35.0241 79.9967 34.455 79.8125 33.9797 79.4725L34.4976 78.531C34.7812 78.8245 35.1636 79.0023 35.5709 79.03C35.7113 79.0354 35.8499 78.9959 35.9663 78.917C36.0273 78.8818 36.0777 78.831 36.1125 78.7697C36.1473 78.7085 36.165 78.6391 36.164 78.5686C36.1612 78.4968 36.1398 78.4269 36.1019 78.3658C36.0639 78.3047 36.0107 78.2546 35.9474 78.2203C35.7831 78.1229 35.6055 78.05 35.4202 78.0037C35.1189 77.919 34.9306 77.8531 34.8553 77.8249C34.7402 77.7776 34.6324 77.7142 34.5352 77.6366C34.4063 77.518 34.3062 77.3716 34.2425 77.2084C34.1789 77.0452 34.1534 76.8696 34.168 76.6951C34.1601 76.4853 34.1956 76.276 34.2723 76.0805C34.349 75.8851 34.4652 75.7075 34.6137 75.559C34.7622 75.4105 34.9397 75.2943 35.1352 75.2176C35.3307 75.141 35.5399 75.1055 35.7497 75.1134C36.2697 75.1186 36.7804 75.2511 37.2373 75.4994L36.7477 76.4409C36.5247 76.2483 36.242 76.1386 35.9474 76.1302C35.8246 76.1264 35.7033 76.1592 35.5991 76.2243C35.5463 76.257 35.503 76.3028 35.4733 76.3573C35.4435 76.4117 35.4285 76.473 35.4296 76.535C35.4353 76.6037 35.4592 76.6696 35.499 76.7259C35.5387 76.7822 35.5928 76.8268 35.6556 76.8551C35.8531 76.942 36.0579 77.0113 36.2676 77.0623C36.6272 77.145 36.9546 77.3316 37.209 77.5989C37.3705 77.8197 37.4534 78.0882 37.4444 78.3615" fill="#F79633"/>
<path d="M41.2104 78.3333C41.2405 78.6703 41.1542 79.0075 40.9657 79.2885C40.7772 79.5696 40.498 79.7774 40.1747 79.8774C39.9231 79.9621 39.6588 80.0035 39.3933 79.9998C38.8115 79.9986 38.2449 79.8141 37.7739 79.4725L38.2917 78.531C38.5708 78.8255 38.9508 79.0037 39.3556 79.03C39.4989 79.0343 39.6401 78.9949 39.7605 78.917C39.821 78.8812 39.8711 78.8303 39.9059 78.7692C39.9407 78.7081 39.959 78.639 39.959 78.5687C39.959 78.4984 39.9407 78.4293 39.9059 78.3682C39.8711 78.3071 39.821 78.2562 39.7605 78.2203C39.5938 78.1209 39.4128 78.0479 39.2238 78.0038C38.9225 77.9191 38.7342 77.8531 38.6589 77.8249C38.5467 77.7777 38.442 77.7143 38.3482 77.6366C38.2164 77.5199 38.1138 77.374 38.0484 77.2105C37.983 77.047 37.9567 76.8706 37.9716 76.6951C37.9636 76.4845 37.9994 76.2744 38.0766 76.0783C38.1539 75.8821 38.271 75.7041 38.4205 75.5555C38.57 75.4069 38.7487 75.2908 38.9453 75.2148C39.1419 75.1387 39.3521 75.1042 39.5628 75.1134C40.0797 75.1187 40.5874 75.2512 41.0409 75.4994L40.5607 76.4409C40.3357 76.2516 40.0543 76.1423 39.7605 76.1302C39.6347 76.1268 39.5105 76.1595 39.4027 76.2244C39.3499 76.257 39.3066 76.3028 39.2769 76.3573C39.2471 76.4118 39.2321 76.473 39.2332 76.5351C39.2389 76.6037 39.2628 76.6696 39.3026 76.7259C39.3423 76.7822 39.3964 76.8268 39.4592 76.8552C39.6602 76.9414 39.868 77.0106 40.0806 77.0623C40.4402 77.1451 40.7676 77.3317 41.0221 77.599C41.1877 77.8176 41.271 78.0876 41.2574 78.3616" fill="#F79633"/>
<path d="M7.47693 72.4207C6.74586 72.7281 5.96318 72.8942 5.17028 72.9103C3.96523 72.9152 2.79633 72.4989 1.86566 71.7334C1.28247 71.2557 0.81261 70.6544 0.48998 69.9731C0.16735 69.2917 0 68.5472 0 67.7933C0 67.0394 0.16735 66.2949 0.48998 65.6136C0.81261 64.9322 1.28247 64.3309 1.86566 63.8532C2.79394 63.091 3.95981 62.678 5.16087 62.6857C5.94418 62.7058 6.71686 62.8718 7.43927 63.1753V66.2163C7.23688 65.957 6.99172 65.7341 6.71432 65.5573C6.27107 65.2903 5.76301 65.1503 5.2456 65.1524C4.62252 65.1429 4.01595 65.3529 3.53209 65.7456C3.24223 66.0052 3.01037 66.323 2.85163 66.6783C2.69289 67.0335 2.61085 67.4183 2.61085 67.8074C2.61085 68.1966 2.69289 68.5813 2.85163 68.9366C3.01037 69.2919 3.24223 69.6097 3.53209 69.8693C4.0126 70.269 4.62068 70.4828 5.2456 70.4718C5.76391 70.4711 6.27203 70.3278 6.71432 70.0576C6.99194 69.881 7.23716 69.6581 7.43927 69.3986L7.47693 72.4207Z" fill="#F79633"/>
<path d="M18.144 72.6466H15.6114V68.5888H11.9302V72.6466H9.39758V62.874H11.9302V66.6493H15.6114V62.874H18.144V72.6466Z" fill="#F79633"/>
<path d="M29.7714 72.6466H27.0599L26.8622 72.1006L25.4594 68.1369L24.6968 65.8867L24.066 67.7132L22.5408 71.9311L22.2583 72.6466H19.5751L23.3316 62.874H26.0996L29.7714 72.6466Z" fill="#F79633"/>
<path d="M40.9563 72.6466H38.4237L33.7445 66.6588V72.6466H31.2119V62.874H33.7445L38.4237 68.8524V62.874H40.9563V72.6466Z" fill="#F79633"/>
<path d="M57.2157 72.6466H51.6609V62.874H57.2157V64.9829H54.1935V66.6682H57.0556V68.7771H54.1935V70.5377H57.2157V72.6466Z" fill="#F79633"/>
<path d="M49.891 72.4207C49.1599 72.7281 48.3772 72.8942 47.5843 72.9102C46.3788 72.9184 45.2088 72.5017 44.2797 71.7334C43.6965 71.2556 43.2267 70.6544 42.904 69.973C42.5814 69.2917 42.4141 68.5471 42.4141 67.7933C42.4141 67.0394 42.5814 66.2949 42.904 65.6135C43.2267 64.9321 43.6965 64.3309 44.2797 63.8531C45.212 63.0765 46.3898 62.6561 47.6032 62.6669C48.3894 62.6877 49.1651 62.8537 49.891 63.1564V66.1975C49.6854 65.9377 49.4371 65.7148 49.1566 65.5384C48.7161 65.2731 48.2115 65.1332 47.6973 65.1336C47.071 65.1218 46.4608 65.3319 45.9744 65.7267C45.6845 65.9863 45.4527 66.3041 45.2939 66.6594C45.1352 67.0147 45.0532 67.3994 45.0532 67.7886C45.0532 68.1777 45.1352 68.5624 45.2939 68.9177C45.4527 69.273 45.6845 69.5908 45.9744 69.8504C46.4578 70.2515 47.0693 70.4654 47.6973 70.453C48.2124 70.4505 48.7171 70.3073 49.1566 70.0387C49.4373 69.8626 49.6857 69.6397 49.891 69.3797V72.4207Z" fill="#F79633"/>
<path d="M49.891 67.7698H46.8406V69.5304H49.891V67.7698Z" fill="#F79633"/>
<path d="M49.8909 67.7698H47.9326V71.0839H49.8909V67.7698Z" fill="#F79633"/>
</svg>
